<svg width="18" height="18" viewBox="0 0 18 18" fill="none" xmlns="http://www.w3.org/2000/svg">
<g clip-path="url(#clip0_8_682)">
<path d="M9.00002 0C7.21998 0 5.47992 0.527841 3.99988 1.51677C2.51983 2.50571 1.36628 3.91131 0.685089 5.55585C0.00389954 7.20038 -0.174331 9.00998 0.172937 10.7558C0.520204 12.5016 1.37737 14.1053 2.63605 15.364C3.89472 16.6226 5.49837 17.4798 7.2442 17.8271C8.99003 18.1743 10.7996 17.9961 12.4442 17.3149C14.0887 16.6337 15.4943 15.4802 16.4833 14.0001C17.4722 12.5201 18 10.78 18 9C18 6.61305 17.0518 4.32387 15.364 2.63604C13.6762 0.948211 11.387 0 9.00002 0V0ZM11.5603 5.85711C11.5603 6.02645 11.4892 6.09395 11.3234 6.09395C11.0049 6.09395 10.6863 6.09395 10.369 6.10697C10.0516 6.12 9.8787 6.26447 9.8787 6.59605C9.8716 6.95132 9.8787 7.29947 9.8787 7.66184H11.2417C11.4359 7.66184 11.5023 7.72816 11.5023 7.92355C11.5023 8.39724 11.5023 8.87329 11.5023 9.35171C11.5023 9.54474 11.4407 9.60513 11.2453 9.60632H9.86686V13.4597C9.86686 13.6658 9.80291 13.7309 9.59923 13.7309H8.11659C7.93778 13.7309 7.86791 13.6611 7.86791 13.4822V9.61224H6.6908C6.50607 9.61224 6.43975 9.54474 6.43975 9.35882C6.43975 8.87961 6.43975 8.40079 6.43975 7.92237C6.43975 7.73763 6.50962 7.66776 6.69199 7.66776H7.86791V6.63158C7.85395 6.16614 7.96563 5.70553 8.1912 5.29816C8.42569 4.88689 8.80144 4.57468 9.2487 4.41947C9.53896 4.31386 9.84575 4.26092 10.1546 4.26316H11.3187C11.4857 4.26316 11.5555 4.33658 11.5555 4.5C11.5615 4.95592 11.5615 5.40711 11.5603 5.85711Z" fill="#4D46FA"/>
</g>
<defs>
<clipPath id="clip0_8_682">
<rect width="18" height="18" fill="white"/>
</clipPath>
</defs>
</svg>
