<svg width="18" height="18" viewBox="0 0 18 18" fill="none" xmlns="http://www.w3.org/2000/svg">
<path d="M10.7227 9C10.7227 9.95142 9.95142 10.7227 9 10.7227C8.04858 10.7227 7.27734 9.95142 7.27734 9C7.27734 8.04858 8.04858 7.27734 9 7.27734C9.95142 7.27734 10.7227 8.04858 10.7227 9Z" fill="#4D46FA"/>
<path d="M13.0287 5.95216C12.9459 5.72777 12.8138 5.52466 12.6422 5.35794C12.4754 5.18628 12.2725 5.05417 12.0479 4.97136C11.8658 4.90063 11.5923 4.81645 11.0884 4.79352C10.5434 4.76866 10.3799 4.76331 9.00006 4.76331C7.62004 4.76331 7.45662 4.76852 6.9117 4.79338C6.40784 4.81645 6.13414 4.90063 5.95218 4.97136C5.72765 5.05417 5.52454 5.18628 5.35796 5.35794C5.18629 5.52466 5.05418 5.72763 4.97124 5.95216C4.90051 6.13426 4.81633 6.40796 4.7934 6.91182C4.76854 7.45674 4.76318 7.62016 4.76318 9.00018C4.76318 10.3801 4.76854 10.5435 4.7934 11.0885C4.81633 11.5924 4.90051 11.866 4.97124 12.0481C5.05418 12.2726 5.18616 12.4756 5.35782 12.6423C5.52454 12.8139 5.72751 12.9461 5.95204 13.0289C6.13414 13.0997 6.40784 13.1839 6.9117 13.2068C7.45662 13.2317 7.6199 13.2369 8.99992 13.2369C10.3801 13.2369 10.5435 13.2317 11.0883 13.2068C11.5921 13.1839 11.8658 13.0997 12.0479 13.0289C12.4987 12.855 12.8549 12.4988 13.0287 12.0481C13.0995 11.866 13.1837 11.5924 13.2067 11.0885C13.2316 10.5435 13.2368 10.3801 13.2368 9.00018C13.2368 7.62016 13.2316 7.45674 13.2067 6.91182C13.1838 6.40796 13.0996 6.13426 13.0287 5.95216ZM9.00006 11.6538C7.53435 11.6538 6.34618 10.4658 6.34618 9.00005C6.34618 7.53433 7.53435 6.3463 9.00006 6.3463C10.4656 6.3463 11.6538 7.53433 11.6538 9.00005C11.6538 10.4658 10.4656 11.6538 9.00006 11.6538ZM11.7587 6.86156C11.4162 6.86156 11.1385 6.58388 11.1385 6.24138C11.1385 5.89888 11.4162 5.6212 11.7587 5.6212C12.1012 5.6212 12.3789 5.89888 12.3789 6.24138C12.3788 6.58388 12.1012 6.86156 11.7587 6.86156Z" fill="#4D46FA"/>
<path d="M9 0C4.0302 0 0 4.0302 0 9C0 13.9698 4.0302 18 9 18C13.9698 18 18 13.9698 18 9C18 4.0302 13.9698 0 9 0ZM14.1368 11.1307C14.1118 11.6808 14.0243 12.0564 13.8966 12.3852C13.6281 13.0794 13.0794 13.6281 12.3852 13.8966C12.0565 14.0243 11.6808 14.1117 11.1308 14.1368C10.5797 14.1619 10.4036 14.168 9.00014 14.168C7.5965 14.168 7.42058 14.1619 6.86934 14.1368C6.31934 14.1117 5.9436 14.0243 5.61497 13.8966C5.27 13.7668 4.95772 13.5634 4.69954 13.3005C4.43669 13.0424 4.23331 12.73 4.10353 12.3852C3.97581 12.0565 3.88834 11.6808 3.86334 11.1308C3.83794 10.5796 3.83203 10.4035 3.83203 9C3.83203 7.5965 3.83794 7.42044 3.8632 6.86934C3.8882 6.3192 3.97554 5.9436 4.10326 5.61484C4.23303 5.27 4.43655 4.95758 4.69954 4.69954C4.95758 4.43655 5.27 4.23317 5.61484 4.10339C5.9436 3.97568 6.3192 3.88834 6.86934 3.8632C7.42044 3.83807 7.5965 3.83203 9 3.83203C10.4035 3.83203 10.5796 3.83807 11.1307 3.86334C11.6808 3.88834 12.0564 3.97568 12.3852 4.10326C12.73 4.23303 13.0424 4.43655 13.3006 4.69954C13.5634 4.95772 13.767 5.27 13.8966 5.61484C14.0245 5.9436 14.1118 6.3192 14.1369 6.86934C14.1621 7.42044 14.168 7.5965 14.168 9C14.168 10.4035 14.1621 10.5796 14.1368 11.1307Z" fill="#4D46FA"/>
</svg>
